<svg xmlns="http://www.w3.org/2000/svg" xmlns:xlink="http://www.w3.org/1999/xlink" version="1.1" class="marks" width="242" height="242" viewBox="0 0 242 242"><rect width="242" height="242" fill="white"/><g fill="none" stroke-miterlimit="10" transform="translate(35,5)"><g class="mark-group role-frame root" role="graphics-object" aria-roledescription="group mark container"><g transform="translate(0,0)"><path class="background" aria-hidden="true" d="M0.5,0.5h200v200h-200Z" stroke="#ddd"/><g><g class="mark-group role-axis" aria-hidden="true"><g transform="translate(0.5,200.5)"><path class="background" aria-hidden="true" d="M0,0h0v0h0Z" pointer-events="none"/><g><g class="mark-rule role-axis-grid" pointer-events="none"><line transform="translate(0,-200)" x2="0" y2="200" stroke="#ddd" stroke-width="1" opacity="1"/><line transform="translate(40,-200)" x2="0" y2="200" stroke="#ddd" stroke-width="1" opacity="1"/><line transform="translate(80,-200)" x2="0" y2="200" stroke="#ddd" stroke-width="1" opacity="1"/><line transform="translate(120,-200)" x2="0" y2="200" stroke="#ddd" stroke-width="1" opacity="1"/><line transform="translate(160,-200)" x2="0" y2="200" stroke="#ddd" stroke-width="1" opacity="1"/><line transform="translate(200,-200)" x2="0" y2="200" stroke="#ddd" stroke-width="1" opacity="1"/></g></g><path class="foreground" aria-hidden="true" d="" pointer-events="none" display="none"/></g></g><g class="mark-group role-axis" aria-hidden="true"><g transform="translate(0.5,0.5)"><path class="background" aria-hidden="true" d="M0,0h0v0h0Z" pointer-events="none"/><g><g class="mark-rule role-axis-grid" pointer-events="none"><line transform="translate(0,200)" x2="200" y2="0" stroke="#ddd" stroke-width="1" opacity="1"/><line transform="translate(0,156)" x2="200" y2="0" stroke="#ddd" stroke-width="1" opacity="1"/><line transform="translate(0,111)" x2="200" y2="0" stroke="#ddd" stroke-width="1" opacity="1"/><line transform="translate(0,67)" x2="200" y2="0" stroke="#ddd" stroke-width="1" opacity="1"/><line transform="translate(0,22)" x2="200" y2="0" stroke="#ddd" stroke-width="1" opacity="1"/></g></g><path class="foreground" aria-hidden="true" d="" pointer-events="none" display="none"/></g></g><g class="mark-group role-axis" role="graphics-symbol" aria-roledescription="axis" aria-label="X-axis titled 'x' for a linear scale with values from 0 to 1,000"><g transform="translate(0.5,200.5)"><path class="background" aria-hidden="true" d="M0,0h0v0h0Z" pointer-events="none"/><g><g class="mark-rule role-axis-tick" pointer-events="none"><line transform="translate(0,0)" x2="0" y2="5" stroke="#888" stroke-width="1" opacity="1"/><line transform="translate(40,0)" x2="0" y2="5" stroke="#888" stroke-width="1" opacity="1"/><line transform="translate(80,0)" x2="0" y2="5" stroke="#888" stroke-width="1" opacity="1"/><line transform="translate(120,0)" x2="0" y2="5" stroke="#888" stroke-width="1" opacity="1"/><line transform="translate(160,0)" x2="0" y2="5" stroke="#888" stroke-width="1" opacity="1"/><line transform="translate(200,0)" x2="0" y2="5" stroke="#888" stroke-width="1" opacity="1"/></g><g class="mark-text role-axis-label" pointer-events="none"><text text-anchor="start" transform="translate(0,15)" font-family="sans-serif" font-size="10px" fill="#000" opacity="1">0</text><text text-anchor="middle" transform="translate(40,15)" font-family="sans-serif" font-size="10px" fill="#000" opacity="0">200</text><text text-anchor="middle" transform="translate(80,15)" font-family="sans-serif" font-size="10px" fill="#000" opacity="1">400</text><text text-anchor="middle" transform="translate(120,15)" font-family="sans-serif" font-size="10px" fill="#000" opacity="0">600</text><text text-anchor="middle" transform="translate(160,15)" font-family="sans-serif" font-size="10px" fill="#000" opacity="1">800</text><text text-anchor="end" transform="translate(200,15)" font-family="sans-serif" font-size="10px" fill="#000" opacity="0">1,000</text></g><g class="mark-rule role-axis-domain" pointer-events="none"><line transform="translate(0,0)" x2="200" y2="0" stroke="#888" stroke-width="1" opacity="1"/></g><g class="mark-text role-axis-title" pointer-events="none"><text text-anchor="middle" transform="translate(100,30)" font-family="sans-serif" font-size="11px" font-weight="bold" fill="#000" opacity="1">x</text></g></g><path class="foreground" aria-hidden="true" d="" pointer-events="none" display="none"/></g></g><g class="mark-group role-axis" role="graphics-symbol" aria-roledescription="axis" aria-label="Y-axis titled 'y' for a linear scale with values from 0 to 5"><g transform="translate(0.5,0.5)"><path class="background" aria-hidden="true" d="M0,0h0v0h0Z" pointer-events="none"/><g><g class="mark-rule role-axis-tick" pointer-events="none"><line transform="translate(0,200)" x2="-5" y2="0" stroke="#888" stroke-width="1" opacity="1"/><line transform="translate(0,156)" x2="-5" y2="0" stroke="#888" stroke-width="1" opacity="1"/><line transform="translate(0,111)" x2="-5" y2="0" stroke="#888" stroke-width="1" opacity="1"/><line transform="translate(0,67)" x2="-5" y2="0" stroke="#888" stroke-width="1" opacity="1"/><line transform="translate(0,22)" x2="-5" y2="0" stroke="#888" stroke-width="1" opacity="1"/></g><g class="mark-text role-axis-label" pointer-events="none"><text text-anchor="end" transform="translate(-7,203)" font-family="sans-serif" font-size="10px" fill="#000" opacity="1">0</text><text text-anchor="end" transform="translate(-7,158.55555555555557)" font-family="sans-serif" font-size="10px" fill="#000" opacity="1">1</text><text text-anchor="end" transform="translate(-7,114.11111111111111)" font-family="sans-serif" font-size="10px" fill="#000" opacity="1">2</text><text text-anchor="end" transform="translate(-7,69.66666666666667)" font-family="sans-serif" font-size="10px" fill="#000" opacity="1">3</text><text text-anchor="end" transform="translate(-7,25.222222222222232)" font-family="sans-serif" font-size="10px" fill="#000" opacity="1">4</text></g><g class="mark-rule role-axis-domain" pointer-events="none"><line transform="translate(0,200)" x2="0" y2="-200" stroke="#888" stroke-width="1" opacity="1"/></g><g class="mark-text role-axis-title" pointer-events="none"><text text-anchor="middle" transform="translate(-19,100) rotate(-90) translate(0,-2)" font-family="sans-serif" font-size="11px" font-weight="bold" fill="#000" opacity="1">y</text></g></g><path class="foreground" aria-hidden="true" d="" pointer-events="none" display="none"/></g></g><g class="mark-line role-mark marks" role="graphics-object" aria-roledescription="line mark container"><path aria-label="x: 1; y: 1" role="graphics-symbol" aria-roledescription="line mark" d="M0.2,155.556L0.4,140.741L0.6,131.852L0.8,125.503L1,120.564L1.2,116.524L1.4,113.105L1.6,110.142L1.8,107.528L2,105.189L2.2,103.072L2.4,101.14L2.6,99.362L2.8,97.716L3,96.183L3.2,94.75L3.4,93.403L3.6,92.133L3.8,90.932L4,89.792L4.2,88.708L4.4,87.675L4.6,86.687L4.8,85.741L5,84.834L5.2,83.963L5.4,83.124L5.6,82.316L5.8,81.537L6,80.783L6.2,80.055L6.4,79.349L6.6,78.665L6.8,78.002L7,77.358L7.2,76.732L7.4,76.123L7.6,75.531L7.8,74.953L8,74.391L8.2,73.842L8.4,73.307L8.6,72.784L8.8,72.273L9,71.773L9.2,71.285L9.4,70.807L9.6,70.339L9.8,69.881L10,69.432L10.2,68.992L10.4,68.561L10.6,68.137L10.8,67.722L11,67.314L11.2,66.914L11.4,66.521L11.6,66.134L11.8,65.754L12,65.381L12.2,65.013L12.4,64.652L12.6,64.297L12.8,63.947L13,63.602L13.2,63.263L13.4,62.929L13.6,62.599L13.8,62.275L14,61.955L14.2,61.64L14.4,61.329L14.6,61.023L14.8,60.72L15,60.422L15.2,60.128L15.4,59.837L15.6,59.551L15.8,59.267L16,58.988L16.2,58.712L16.4,58.439L16.6,58.17L16.8,57.904L17,57.641L17.2,57.381L17.4,57.124L17.6,56.87L17.8,56.619L18,56.371L18.2,56.125L18.4,55.882L18.6,55.642L18.8,55.404L19,55.169L19.2,54.936L19.4,54.706L19.6,54.478L19.8,54.253L20,54.029L20.2,53.808L20.4,53.589L20.6,53.372L20.8,53.158L21,52.945L21.2,52.734L21.4,52.526L21.6,52.319L21.8,52.114L22,51.911L22.2,51.71L22.4,51.511L22.6,51.313L22.8,51.118L23,50.923L23.2,50.731L23.4,50.54L23.6,50.351L23.8,50.164L24,49.978L24.2,49.793L24.4,49.61L24.6,49.429L24.8,49.249L25,49.071L25.2,48.893L25.4,48.718L25.6,48.543L25.8,48.371L26,48.199L26.2,48.029L26.4,47.86L26.6,47.692L26.8,47.526L27,47.36L27.2,47.196L27.4,47.033L27.6,46.872L27.8,46.711L28,46.552L28.2,46.394L28.4,46.237L28.6,46.081L28.8,45.926L29,45.772L29.2,45.62L29.4,45.468L29.6,45.317L29.8,45.168L30,45.019L30.2,44.871L30.4,44.725L30.6,44.579L30.8,44.434L31,44.29L31.2,44.147L31.4,44.005L31.6,43.864L31.8,43.724L32,43.585L32.2,43.446L32.4,43.309L32.6,43.172L32.8,43.036L33,42.901L33.2,42.767L33.4,42.633L33.6,42.501L33.8,42.369L34,42.238L34.2,42.107L34.4,41.978L34.6,41.849L34.8,41.721L35,41.593L35.2,41.467L35.4,41.341L35.6,41.216L35.8,41.091L36,40.967L36.2,40.844L36.4,40.722L36.6,40.6L36.8,40.479L37,40.359L37.2,40.239L37.4,40.12L37.6,40.001L37.8,39.883L38,39.766L38.2,39.649L38.4,39.533L38.6,39.418L38.8,39.303L39,39.189L39.2,39.075L39.4,38.962L39.6,38.849L39.8,38.737L40,38.626L40.2,38.515L40.4,38.405L40.6,38.295L40.8,38.186L41,38.077L41.2,37.969L41.4,37.862L41.6,37.754L41.8,37.648L42,37.542L42.2,37.436L42.4,37.331L42.6,37.227L42.8,37.123L43,37.019L43.2,36.916L43.4,36.813L43.6,36.711L43.8,36.609L44,36.508L44.2,36.407L44.4,36.307L44.6,36.207L44.8,36.108L45,36.009L45.2,35.91L45.4,35.812L45.6,35.714L45.8,35.617L46,35.52L46.2,35.424L46.4,35.328L46.6,35.232L46.8,35.137L47,35.042L47.2,34.948L47.4,34.854L47.6,34.76L47.8,34.667L48,34.574L48.2,34.482L48.4,34.39L48.6,34.298L48.8,34.207L49,34.116L49.2,34.026L49.4,33.936L49.6,33.846L49.8,33.756L50,33.667L50.2,33.579L50.4,33.49L50.6,33.402L50.8,33.315L51,33.227L51.2,33.14L51.4,33.054L51.6,32.967L51.8,32.881L52,32.796L52.2,32.71L52.4,32.625L52.6,32.541L52.8,32.456L53,32.372L53.2,32.289L53.4,32.205L53.6,32.122L53.8,32.04L54,31.957L54.2,31.875L54.4,31.793L54.6,31.712L54.8,31.63L55,31.549L55.2,31.469L55.4,31.388L55.6,31.308L55.8,31.228L56,31.149L56.2,31.07L56.4,30.991L56.6,30.912L56.8,30.834L57,30.756L57.2,30.678L57.4,30.6L57.6,30.523L57.8,30.446L58,30.369L58.2,30.293L58.4,30.216L58.6,30.14L58.8,30.065L59,29.989L59.2,29.914L59.4,29.839L59.6,29.764L59.8,29.69L60,29.616L60.2,29.542L60.4,29.468L60.6,29.395L60.8,29.321L61,29.248L61.2,29.176L61.4,29.103L61.6,29.031L61.8,28.959L62,28.887L62.2,28.815L62.4,28.744L62.6,28.673L62.8,28.602L63,28.531L63.2,28.461L63.4,28.391L63.6,28.321L63.8,28.251L64,28.182L64.2,28.112L64.4,28.043L64.6,27.974L64.8,27.905L65,27.837L65.2,27.769L65.4,27.701L65.6,27.633L65.8,27.565L66,27.498L66.2,27.43L66.4,27.363L66.6,27.297L66.8,27.23L67,27.164L67.2,27.097L67.4,27.031L67.6,26.965L67.8,26.9L68,26.834L68.2,26.769L68.4,26.704L68.6,26.639L68.8,26.574L69,26.51L69.2,26.446L69.4,26.381L69.6,26.317L69.8,26.254L70,26.19L70.2,26.127L70.4,26.064L70.6,26L70.8,25.938L71,25.875L71.2,25.812L71.4,25.75L71.6,25.688L71.8,25.626L72,25.564L72.2,25.502L72.4,25.441L72.6,25.38L72.8,25.319L73,25.258L73.2,25.197L73.4,25.136L73.6,25.076L73.8,25.015L74,24.955L74.2,24.895L74.4,24.835L74.6,24.776L74.8,24.716L75,24.657L75.2,24.598L75.4,24.539L75.6,24.48L75.8,24.421L76,24.363L76.2,24.304L76.4,24.246L76.6,24.188L76.8,24.13L77,24.072L77.2,24.014L77.4,23.957L77.6,23.9L77.8,23.842L78,23.785L78.2,23.728L78.4,23.672L78.6,23.615L78.8,23.559L79,23.502L79.2,23.446L79.4,23.39L79.6,23.334L79.8,23.278L80,23.223L80.2,23.167L80.4,23.112L80.6,23.057L80.8,23.002L81,22.947L81.2,22.892L81.4,22.837L81.6,22.783L81.8,22.728L82,22.674L82.2,22.62L82.4,22.566L82.6,22.512L82.8,22.458L83,22.405L83.2,22.351L83.4,22.298L83.6,22.245L83.8,22.192L84,22.139L84.2,22.086L84.4,22.033L84.6,21.98L84.8,21.928L85,21.876L85.2,21.823L85.4,21.771L85.6,21.719L85.8,21.667L86,21.616L86.2,21.564L86.4,21.513L86.6,21.461L86.8,21.41L87,21.359L87.2,21.308L87.4,21.257L87.6,21.206L87.8,21.155L88,21.105L88.2,21.054L88.4,21.004L88.6,20.954L88.8,20.904L89,20.854L89.2,20.804L89.4,20.754L89.6,20.704L89.8,20.655L90,20.605L90.2,20.556L90.4,20.507L90.6,20.458L90.8,20.409L91,20.36L91.2,20.311L91.4,20.262L91.6,20.214L91.8,20.165L92,20.117L92.2,20.069L92.4,20.021L92.6,19.973L92.8,19.925L93,19.877L93.2,19.829L93.4,19.781L93.6,19.734L93.8,19.686L94,19.639L94.2,19.592L94.4,19.545L94.6,19.498L94.8,19.451L95,19.404L95.2,19.357L95.4,19.311L95.6,19.264L95.8,19.218L96,19.171L96.2,19.125L96.4,19.079L96.6,19.033L96.8,18.987L97,18.941L97.2,18.895L97.4,18.849L97.6,18.804L97.8,18.758L98,18.713L98.2,18.668L98.4,18.622L98.6,18.577L98.8,18.532L99,18.487L99.2,18.443L99.4,18.398L99.6,18.353L99.8,18.309L100,18.264L100.2,18.22L100.4,18.175L100.6,18.131L100.8,18.087L101,18.043L101.2,17.999L101.4,17.955L101.6,17.911L101.8,17.868L102,17.824L102.2,17.78L102.4,17.737L102.6,17.694L102.8,17.65L103,17.607L103.2,17.564L103.4,17.521L103.6,17.478L103.8,17.435L104,17.392L104.2,17.35L104.4,17.307L104.6,17.265L104.8,17.222L105,17.18L105.2,17.138L105.4,17.095L105.6,17.053L105.8,17.011L106,16.969L106.2,16.927L106.4,16.885L106.6,16.844L106.8,16.802L107,16.761L107.2,16.719L107.4,16.678L107.6,16.636L107.8,16.595L108,16.554L108.2,16.513L108.4,16.472L108.6,16.431L108.8,16.39L109,16.349L109.2,16.308L109.4,16.268L109.6,16.227L109.8,16.186L110,16.146L110.2,16.106L110.4,16.065L110.6,16.025L110.8,15.985L111,15.945L111.2,15.905L111.4,15.865L111.6,15.825L111.8,15.785L112,15.746L112.2,15.706L112.4,15.666L112.6,15.627L112.8,15.587L113,15.548L113.2,15.509L113.4,15.47L113.6,15.43L113.8,15.391L114,15.352L114.2,15.313L114.4,15.274L114.6,15.236L114.8,15.197L115,15.158L115.2,15.12L115.4,15.081L115.6,15.043L115.8,15.004L116,14.966L116.2,14.928L116.4,14.889L116.6,14.851L116.8,14.813L117,14.775L117.2,14.737L117.4,14.699L117.6,14.661L117.8,14.624L118,14.586L118.2,14.548L118.4,14.511L118.6,14.473L118.8,14.436L119,14.398L119.2,14.361L119.4,14.324L119.6,14.287L119.8,14.25L120,14.212L120.2,14.175L120.4,14.138L120.6,14.102L120.8,14.065L121,14.028L121.2,13.991L121.4,13.955L121.6,13.918L121.8,13.882L122,13.845L122.2,13.809L122.4,13.772L122.6,13.736L122.8,13.7L123,13.664L123.2,13.628L123.4,13.592L123.6,13.556L123.8,13.52L124,13.484L124.2,13.448L124.4,13.412L124.6,13.377L124.8,13.341L125,13.305L125.2,13.27L125.4,13.234L125.6,13.199L125.8,13.164L126,13.128L126.2,13.093L126.4,13.058L126.6,13.023L126.8,12.988L127,12.953L127.2,12.918L127.4,12.883L127.6,12.848L127.8,12.813L128,12.778L128.2,12.744L128.4,12.709L128.6,12.674L128.8,12.64L129,12.605L129.2,12.571L129.4,12.537L129.6,12.502L129.8,12.468L130,12.434L130.2,12.4L130.4,12.365L130.6,12.331L130.8,12.297L131,12.263L131.2,12.23L131.4,12.196L131.6,12.162L131.8,12.128L132,12.094L132.2,12.061L132.4,12.027L132.6,11.994L132.8,11.96L133,11.927L133.2,11.893L133.4,11.86L133.6,11.827L133.8,11.793L134,11.76L134.2,11.727L134.4,11.694L134.6,11.661L134.8,11.628L135,11.595L135.2,11.562L135.4,11.529L135.6,11.497L135.8,11.464L136,11.431L136.2,11.398L136.4,11.366L136.6,11.333L136.8,11.301L137,11.268L137.2,11.236L137.4,11.203L137.6,11.171L137.8,11.139L138,11.107L138.2,11.074L138.4,11.042L138.6,11.01L138.8,10.978L139,10.946L139.2,10.914L139.4,10.882L139.6,10.85L139.8,10.819L140,10.787L140.2,10.755L140.4,10.723L140.6,10.692L140.8,10.66L141,10.629L141.2,10.597L141.4,10.566L141.6,10.534L141.8,10.503L142,10.472L142.2,10.44L142.4,10.409L142.6,10.378L142.8,10.347L143,10.316L143.2,10.285L143.4,10.254L143.6,10.223L143.8,10.192L144,10.161L144.2,10.13L144.4,10.099L144.6,10.068L144.8,10.038L145,10.007L145.2,9.976L145.4,9.946L145.6,9.915L145.8,9.885L146,9.854L146.2,9.824L146.4,9.794L146.6,9.763L146.8,9.733L147,9.703L147.2,9.672L147.4,9.642L147.6,9.612L147.8,9.582L148,9.552L148.2,9.522L148.4,9.492L148.6,9.462L148.8,9.432L149,9.402L149.2,9.373L149.4,9.343L149.6,9.313L149.8,9.283L150,9.254L150.2,9.224L150.4,9.195L150.6,9.165L150.8,9.136L151,9.106L151.2,9.077L151.4,9.047L151.6,9.018L151.8,8.989L152,8.959L152.2,8.93L152.4,8.901L152.6,8.872L152.8,8.843L153,8.814L153.2,8.785L153.4,8.756L153.6,8.727L153.8,8.698L154,8.669L154.2,8.64L154.4,8.611L154.6,8.582L154.8,8.554L155,8.525L155.2,8.496L155.4,8.468L155.6,8.439L155.8,8.411L156,8.382L156.2,8.354L156.4,8.325L156.6,8.297L156.8,8.268L157,8.24L157.2,8.212L157.4,8.184L157.6,8.155L157.8,8.127L158,8.099L158.2,8.071L158.4,8.043L158.6,8.015L158.8,7.987L159,7.959L159.2,7.931L159.4,7.903L159.6,7.875L159.8,7.847L160,7.82L160.2,7.792L160.4,7.764L160.6,7.736L160.8,7.709L161,7.681L161.2,7.653L161.4,7.626L161.6,7.598L161.8,7.571L162,7.543L162.2,7.516L162.4,7.489L162.6,7.461L162.8,7.434L163,7.407L163.2,7.379L163.4,7.352L163.6,7.325L163.8,7.298L164,7.271L164.2,7.244L164.4,7.217L164.6,7.19L164.8,7.163L165,7.136L165.2,7.109L165.4,7.082L165.6,7.055L165.8,7.028L166,7.001L166.2,6.975L166.4,6.948L166.6,6.921L166.8,6.895L167,6.868L167.2,6.841L167.4,6.815L167.6,6.788L167.8,6.762L168,6.735L168.2,6.709L168.4,6.682L168.6,6.656L168.8,6.63L169,6.603L169.2,6.577L169.4,6.551L169.6,6.525L169.8,6.498L170,6.472L170.2,6.446L170.4,6.42L170.6,6.394L170.8,6.368L171,6.342L171.2,6.316L171.4,6.29L171.6,6.264L171.8,6.238L172,6.212L172.2,6.187L172.4,6.161L172.6,6.135L172.8,6.109L173,6.084L173.2,6.058L173.4,6.032L173.6,6.007L173.8,5.981L174,5.955L174.2,5.93L174.4,5.904L174.6,5.879L174.8,5.854L175,5.828L175.2,5.803L175.4,5.777L175.6,5.752L175.8,5.727L176,5.702L176.2,5.676L176.4,5.651L176.6,5.626L176.8,5.601L177,5.576L177.2,5.551L177.4,5.525L177.6,5.5L177.8,5.475L178,5.45L178.2,5.425L178.4,5.401L178.6,5.376L178.8,5.351L179,5.326L179.2,5.301L179.4,5.276L179.6,5.252L179.8,5.227L180,5.202L180.2,5.177L180.4,5.153L180.6,5.128L180.8,5.104L181,5.079L181.2,5.054L181.4,5.03L181.6,5.005L181.8,4.981L182,4.957L182.2,4.932L182.4,4.908L182.6,4.883L182.8,4.859L183,4.835L183.2,4.811L183.4,4.786L183.6,4.762L183.8,4.738L184,4.714L184.2,4.69L184.4,4.665L184.6,4.641L184.8,4.617L185,4.593L185.2,4.569L185.4,4.545L185.6,4.521L185.8,4.497L186,4.473L186.2,4.45L186.4,4.426L186.6,4.402L186.8,4.378L187,4.354L187.2,4.331L187.4,4.307L187.6,4.283L187.8,4.259L188,4.236L188.2,4.212L188.4,4.189L188.6,4.165L188.8,4.141L189,4.118L189.2,4.094L189.4,4.071L189.6,4.047L189.8,4.024L190,4.001L190.2,3.977L190.4,3.954L190.6,3.931L190.8,3.907L191,3.884L191.2,3.861L191.4,3.837L191.6,3.814L191.8,3.791L192,3.768L192.2,3.745L192.4,3.722L192.6,3.699L192.8,3.676L193,3.652L193.2,3.629L193.4,3.606L193.6,3.584L193.8,3.561L194,3.538L194.2,3.515L194.4,3.492L194.6,3.469L194.8,3.446L195,3.423L195.2,3.401L195.4,3.378L195.6,3.355L195.8,3.332L196,3.31L196.2,3.287L196.4,3.264L196.6,3.242L196.8,3.219L197,3.197L197.2,3.174L197.4,3.152L197.6,3.129L197.8,3.107L198,3.084L198.2,3.062L198.4,3.039L198.6,3.017L198.8,2.995L199,2.972L199.2,2.95L199.4,2.928L199.6,2.905L199.8,2.883L200,2.861" stroke="#4c78a8" stroke-width="2"/></g></g><path class="foreground" aria-hidden="true" d="" display="none"/></g></g></g></svg>